<svg xmlns="http://www.w3.org/2000/svg" viewBox="0 0 126.2 126.29"><defs><style>.cls-1{fill:#ffde7c;}.cls-2,.cls-4{fill:#fff;}.cls-2,.cls-5{stroke:#231f20;stroke-miterlimit:10;stroke-width:3px;}.cls-3{fill:#231f20;}.cls-5{fill:none;}</style></defs><title>Asset 8</title><g id="Layer_2" data-name="Layer 2"><g id="Layer_25" data-name="Layer 25"><path class="cls-1" d="M19.55,9.79a5.81,5.81,0,0,1,2.68,4.4c.57,6.32.66,15.52.88,22.22.45,13.6,1.39,29.91,1.71,35.71.35,6.24.86,13.73,1.44,20,.59,6.5,5.85,8.25,11.69,6l75.12-29.74c.53-.21,2.79,4.16,2.59,5.46l0,.2a2.66,2.66,0,0,1-1.62,2.1L20.63,113.09A2.47,2.47,0,0,1,18,112.6l-1.22-1.1a2.79,2.79,0,0,1-.88-2L14.57,52.8l1.32-40A3.39,3.39,0,0,1,19.2,9.58h0Z"/></g><g id="Layer_24" data-name="Layer 24"><path class="cls-2" d="M22.21,10.23a3,3,0,0,0-5.1,1.91c-.59,13-2.42,27-2.59,47.59-.13,16.5.94,39.59,1.38,50A3.76,3.76,0,0,0,21,113.08l93.55-35.26A3,3,0,0,0,116,73.48C110.78,65.15,97.8,45,90,33.68,84.93,26.2,72.59,10.26,66.56,3a3,3,0,0,0-5.22,1.49L55.22,39.63a3,3,0,0,1-5.08,1.65Z"/><path class="cls-3" d="M101.21,60.31l16.26-8.83c2.83-1.53.31-5.85-2.52-4.31L98.69,56c-2.83,1.54-.31,5.86,2.52,4.32Z"/><path class="cls-3" d="M103.07,69l21.32-4.12c3.16-.61,1.82-5.43-1.32-4.83l-21.33,4.13c-3.16.61-1.82,5.43,1.33,4.82Z"/><path class="cls-3" d="M21,85.16l-18.5.34c-3.22.06-3.23,5.06,0,5L21,90.16c3.21-.06,3.22-5.06,0-5Z"/><path class="cls-3" d="M22.32,93.81l-20.6,6.93c-3,1-1.73,5.85,1.33,4.82l20.6-6.93c3-1,1.73-5.85-1.33-4.82Z"/><path class="cls-3" d="M36.58,67.59l1-7.72a1.08,1.08,0,0,1,1.64-.78l6.58,4.11a1.08,1.08,0,0,1-.11,1.88L38.1,68.69A1.07,1.07,0,0,1,36.58,67.59Z"/><path class="cls-4" d="M38.78,72.31l1-7.72a1.07,1.07,0,0,1,1.63-.78L48,67.92a1.07,1.07,0,0,1-.1,1.87l-7.54,3.62A1.08,1.08,0,0,1,38.78,72.31Z"/><path class="cls-3" d="M71.69,53.81l1-7.72a1.07,1.07,0,0,1,1.63-.78l6.58,4.11a1.08,1.08,0,0,1-.1,1.88l-7.54,3.61A1.08,1.08,0,0,1,71.69,53.81Z"/><path class="cls-4" d="M73.9,58.52l1-7.72A1.07,1.07,0,0,1,76.49,50l6.58,4.1A1.08,1.08,0,0,1,83,56l-7.54,3.61A1.07,1.07,0,0,1,73.9,58.52Z"/><path class="cls-3" d="M54.61,77.46c-1.32,2.09-1.74,4.93-.29,7.05C56,87,59.5,88,62.38,87.56a6.66,6.66,0,0,0,5.36-5.46c.41-2.91-1.1-6.24-2.45-8.76-.76-1.42-2.92-.16-2.16,1.26,1.59,3,4,8.5-.38,10.31a6.12,6.12,0,0,1-5.87-1.22c-1.45-1.37-1.08-3.44-.12-5,.86-1.36-1.3-2.62-2.15-1.26Z"/><path class="cls-3" d="M73,71.52c4.24.41,4.52,5.19,1.84,7.85-4,4-7.8-2.29-9.25-5.54-.66-1.46-2.81-.19-2.16,1.26,1.2,2.69,3,6.16,5.85,7.42a6.72,6.72,0,0,0,8.1-2.28C80.77,75.61,78.9,69.59,73,69c-1.6-.15-1.59,2.35,0,2.5Z"/><g id="_0ciPfu.tif" data-name="0ciPfu.tif"><path d="M120,126.21c-3.39.66-6.51-2.68-5.8-6.24.15-.74.33-1.43.41-2.1.76-6.72,1.76-13.18-4.8-18.64-5.33-4.44-12.51-3.85-18.16,1.66-5.44,5.3-10.49,11.14-16,16.27-6.38,5.89-13.72,9.43-23.18,6.12-6.39-2.22-13.2-7.61-15.73-14.47a2.45,2.45,0,0,1,4.12-2.56l0,0c9.46,11.81,21.52,13.12,30.45,2.3,6.13-7.44,12.86-14.42,20.34-19.85,10.49-7.62,22.87-2.3,30.8,11.54C127,108.25,128.6,124.52,120,126.21Z"/></g><path class="cls-1" d="M19.91,10.85a5.8,5.8,0,0,1,2.68,4.39c.57,6.33.66,15.53.88,22.22.45,13.6,1.39,29.91,1.71,35.72.35,6.24.86,13.72,1.44,20,.59,6.49,5.85,8.25,11.69,6l75.12-29.75c.53-.21,2.79,4.16,2.59,5.47l0,.19a2.65,2.65,0,0,1-1.62,2.1L21,114.15a2.47,2.47,0,0,1-2.59-.49l-1.22-1.11a2.77,2.77,0,0,1-.88-2L14.93,53.85l1.32-40a3.4,3.4,0,0,1,3.31-3.22h0Z"/><path class="cls-5" d="M21.85,9.86a3,3,0,0,0-5.1,1.91c-.58,13-2.42,27-2.59,47.59-.13,16.5.94,39.59,1.38,50a3.76,3.76,0,0,0,5.08,3.35l93.55-35.27a3,3,0,0,0,1.47-4.34c-5.22-8.32-18.2-28.45-26-39.79C84.57,25.83,72.23,9.89,66.2,2.58A3,3,0,0,0,61,4.07L54.86,39.26a3,3,0,0,1-5.07,1.65Z"/><path class="cls-3" d="M21,85.16l-18.5.34c-3.22.06-3.23,5.06,0,5L21,90.16c3.21-.06,3.22-5.06,0-5Z"/><path class="cls-3" d="M22.32,93.81l-20.6,6.93c-3,1-1.73,5.85,1.33,4.82l20.6-6.93c3-1,1.73-5.85-1.33-4.82Z"/></g></g></svg>