<svg xmlns="http://www.w3.org/2000/svg" viewBox="0 0 16.06 14.81"><defs><style>.cls-1{fill:#ffde7c;stroke:#231f20;stroke-miterlimit:10;stroke-width:0.5px;}.cls-2{fill:#231f20;}</style></defs><title>Asset 5</title><g id="Layer_2" data-name="Layer 2"><g id="Layer_24" data-name="Layer 24"><path class="cls-1" d="M2.78,1.32a.38.38,0,0,0-.65.25C2.05,3.24,1.82,5,1.8,7.68c0,2.12.12,5.08.17,6.42a.49.49,0,0,0,.66.43l12-4.53a.39.39,0,0,0,.19-.56c-.67-1.07-2.34-3.65-3.34-5.11-.65-1-2.24-3-3-3.94a.38.38,0,0,0-.67.19L7,5.1a.38.38,0,0,1-.65.21Z"/><path class="cls-2" d="M12.89,7.69,15,6.56a.25.25,0,0,0-.25-.43L12.64,7.26c-.28.15,0,.59.25.43Z"/><path class="cls-2" d="M13.15,8.8l2.73-.53c.32-.06.19-.54-.13-.48L13,8.32c-.31.06-.18.54.14.48Z"/><path class="cls-2" d="M2.62,11l-2.37.05a.25.25,0,0,0,0,.5l2.37-.05a.25.25,0,0,0,0-.5Z"/><path class="cls-2" d="M2.82,12.12.17,13c-.3.1-.17.59.14.48L3,12.6c.3-.1.17-.58-.13-.48Z"/></g></g></svg>